<svg width="55" height="55" viewBox="0 0 55 55" fill="none" xmlns="http://www.w3.org/2000/svg">
<g id="Icon">
<g id="Border" opacity="0.06">
<path id="Shape" d="M0 16C0 7.16346 7.16344 0 16 0H38.3527C47.1892 0 54.3527 7.16344 54.3527 16V38.6873C54.3527 47.5238 47.1892 54.6873 38.3527 54.6873H16C7.16345 54.6873 0 47.5239 0 38.6873V16Z" fill="#05EEC0"/>
</g>
<g id="Icon_Protection">
<path id="Path" fill-rule="evenodd" clip-rule="evenodd" d="M39.6365 17.4723L27.4071 13.0289C27.258 12.9747 27.0947 12.9747 26.9456 13.0289L14.7162 17.4723C14.447 17.5701 14.2676 17.8272 14.2676 18.1152V27.3437C14.2676 34.5906 18.5691 39.3994 27.0003 41.6758C27.1171 41.7073 27.2402 41.7069 27.3569 41.6745C35.7853 39.3368 40.0851 34.5298 40.0851 27.3437V18.1152C40.0851 17.8272 39.9057 17.5701 39.6365 17.4723ZM22.4859 26.1479C22.7578 25.8876 23.1878 25.8984 23.4465 26.1719L26.1949 29.078L31.9665 22.7787C32.2208 22.5011 32.6506 22.4836 32.9265 22.7395C33.2024 22.9954 33.2199 23.4278 32.9655 23.7054L26.7023 30.5413C26.4361 30.8318 25.9813 30.8355 25.7106 30.5492L22.4621 27.1143C22.2034 26.8408 22.2141 26.4081 22.4859 26.1479Z" fill="#05EEC0"/>
</g>
</g>
</svg>
