<svg width="165" height="165" viewBox="0 0 165 165" fill="none" xmlns="http://www.w3.org/2000/svg">
<g id="Icon">
<g id="Border" opacity="0.06">
<path id="Shape" d="M0 48C0 21.4904 21.4903 0 48 0H115.058C141.568 0 163.058 21.4903 163.058 48V116.062C163.058 142.572 141.568 164.062 115.058 164.062H48C21.4904 164.062 0 142.572 0 116.062V48Z" fill="#05EEC0"/>
</g>
<g id="Icon_Protection">
<path id="Path" fill-rule="evenodd" clip-rule="evenodd" d="M118.909 52.4168L82.2213 39.0868C81.7739 38.9242 81.2841 38.9242 80.8368 39.0868L44.1487 52.4168C43.341 52.7103 42.8027 53.4816 42.8027 54.3456V82.0311C42.8027 103.772 55.7073 118.198 81.0008 125.027C81.3514 125.122 81.7207 125.121 82.0707 125.024C107.356 118.011 120.255 103.59 120.255 82.0311V54.3456C120.255 53.4816 119.717 52.7103 118.909 52.4168ZM67.4578 78.4436C68.2733 77.6628 69.5635 77.6951 70.3394 78.5156L78.5847 87.234L95.8994 68.3362C96.6624 67.5034 97.9519 67.4507 98.7795 68.2184C99.6072 68.9861 99.6596 70.2835 98.8966 71.1162L80.1069 91.624C79.3084 92.4955 77.9439 92.5064 77.1318 91.6476L67.3863 81.3429C66.6103 80.5224 66.6424 79.2243 67.4578 78.4436Z" fill="#05EEC0"/>
</g>
</g>
</svg>
