<svg width="63" height="24" viewBox="0 0 63 24" fill="none" xmlns="http://www.w3.org/2000/svg">
<rect width="63" height="24" rx="4" fill="#FFA043" fill-opacity="0.1"/>
<path d="M8.84 16H10.094V12.898H12.332C12.412 12.898 12.514 12.894 12.638 12.886C12.766 12.878 12.886 12.866 12.998 12.85C13.718 12.734 14.258 12.426 14.618 11.926C14.982 11.426 15.164 10.826 15.164 10.126C15.164 9.426 14.984 8.826 14.624 8.326C14.264 7.826 13.722 7.52 12.998 7.408C12.886 7.388 12.768 7.376 12.644 7.372C12.52 7.364 12.416 7.36 12.332 7.36H8.84V16ZM10.094 11.71V8.542H12.284C12.364 8.542 12.452 8.546 12.548 8.554C12.648 8.562 12.742 8.578 12.83 8.602C13.214 8.69 13.486 8.886 13.646 9.19C13.806 9.494 13.886 9.806 13.886 10.126C13.886 10.442 13.806 10.754 13.646 11.062C13.486 11.366 13.214 11.564 12.83 11.656C12.742 11.676 12.648 11.69 12.548 11.698C12.452 11.706 12.364 11.71 12.284 11.71H10.094ZM19.1554 16.18C19.7834 16.18 20.3534 16.022 20.8654 15.706C21.3774 15.386 21.7594 14.936 22.0114 14.356L20.7814 13.966C20.4534 14.654 19.8914 14.998 19.0954 14.998C18.5514 14.998 18.1234 14.834 17.8114 14.506C17.4994 14.178 17.3174 13.714 17.2654 13.114H22.0954C22.1394 12.338 22.0474 11.668 21.8194 11.104C21.5914 10.54 21.2454 10.106 20.7814 9.802C20.3174 9.494 19.7554 9.34 19.0954 9.34C18.4634 9.34 17.9094 9.482 17.4334 9.766C16.9574 10.05 16.5854 10.452 16.3174 10.972C16.0534 11.492 15.9214 12.106 15.9214 12.814C15.9214 13.482 16.0554 14.07 16.3234 14.578C16.5954 15.082 16.9734 15.476 17.4574 15.76C17.9454 16.04 18.5114 16.18 19.1554 16.18ZM19.1434 10.45C20.1234 10.45 20.6794 11.012 20.8114 12.136H17.2954C17.3754 11.588 17.5694 11.17 17.8774 10.882C18.1854 10.594 18.6074 10.45 19.1434 10.45ZM23.2598 16H24.5318V12.628C24.5318 12.116 24.6058 11.708 24.7538 11.404C24.9058 11.096 25.1058 10.874 25.3538 10.738C25.6018 10.602 25.8758 10.534 26.1758 10.534C26.5198 10.534 26.7998 10.604 27.0158 10.744C27.2318 10.884 27.3978 11.068 27.5138 11.296C27.6298 11.524 27.7078 11.772 27.7478 12.04C27.7918 12.304 27.8138 12.562 27.8138 12.814V16H29.0858V12.4C29.0858 12.2 29.0678 11.968 29.0318 11.704C28.9958 11.44 28.9278 11.17 28.8278 10.894C28.7278 10.618 28.5818 10.364 28.3898 10.132C28.2018 9.896 27.9558 9.706 27.6518 9.562C27.3478 9.418 26.9718 9.346 26.5238 9.346C26.0558 9.346 25.6398 9.43 25.2758 9.598C24.9158 9.766 24.6178 9.998 24.3818 10.294V9.52H23.2598V16ZM33.1406 16.18C33.5486 16.18 33.9126 16.112 34.2326 15.976C34.5566 15.84 34.8366 15.65 35.0726 15.406V16H36.1886V7.36H34.9286V9.964C34.7046 9.764 34.4446 9.61 34.1486 9.502C33.8526 9.394 33.5246 9.34 33.1646 9.34C32.5566 9.34 32.0306 9.49 31.5866 9.79C31.1466 10.086 30.8066 10.492 30.5666 11.008C30.3266 11.52 30.2066 12.102 30.2066 12.754C30.2066 13.402 30.3246 13.984 30.5606 14.5C30.8006 15.016 31.1406 15.426 31.5806 15.73C32.0206 16.03 32.5406 16.18 33.1406 16.18ZM33.3146 15.046C32.9146 15.046 32.5826 14.944 32.3186 14.74C32.0546 14.536 31.8586 14.262 31.7306 13.918C31.6026 13.57 31.5386 13.182 31.5386 12.754C31.5386 12.33 31.6026 11.946 31.7306 11.602C31.8626 11.258 32.0626 10.984 32.3306 10.78C32.5986 10.576 32.9406 10.474 33.3566 10.474C33.9486 10.474 34.3826 10.686 34.6586 11.11C34.9346 11.534 35.0726 12.082 35.0726 12.754C35.0726 13.426 34.9346 13.976 34.6586 14.404C34.3826 14.832 33.9346 15.046 33.3146 15.046ZM37.9873 8.458H39.2413V7.24H37.9873V8.458ZM37.9873 16H39.2413V9.52H37.9873V16ZM41.0371 16H42.3091V12.628C42.3091 12.116 42.3831 11.708 42.5311 11.404C42.6831 11.096 42.8831 10.874 43.1311 10.738C43.3791 10.602 43.6531 10.534 43.9531 10.534C44.2971 10.534 44.5771 10.604 44.7931 10.744C45.0091 10.884 45.1751 11.068 45.2911 11.296C45.4071 11.524 45.4851 11.772 45.5251 12.04C45.5691 12.304 45.5911 12.562 45.5911 12.814V16H46.8631V12.4C46.8631 12.2 46.8451 11.968 46.8091 11.704C46.7731 11.44 46.7051 11.17 46.6051 10.894C46.5051 10.618 46.3591 10.364 46.1671 10.132C45.9791 9.896 45.7331 9.706 45.4291 9.562C45.1251 9.418 44.7491 9.346 44.3011 9.346C43.8331 9.346 43.4171 9.43 43.0531 9.598C42.6931 9.766 42.3951 9.998 42.1591 10.294V9.52H41.0371V16ZM50.9999 16.18C51.3679 16.18 51.6999 16.124 51.9959 16.012C52.2919 15.904 52.5539 15.75 52.7819 15.55V16.162C52.7899 16.718 52.6459 17.138 52.3499 17.422C52.0579 17.71 51.6439 17.854 51.1079 17.854C50.8199 17.854 50.5459 17.79 50.2859 17.662C50.0259 17.534 49.8259 17.332 49.6859 17.056L48.5279 17.644C48.7919 18.104 49.1559 18.454 49.6199 18.694C50.0839 18.938 50.5759 19.06 51.0959 19.06C51.8519 19.06 52.4839 18.902 52.9919 18.586C53.4999 18.274 53.8219 17.79 53.9579 17.134C53.9899 16.982 54.0119 16.826 54.0239 16.666C54.0359 16.51 54.0419 16.346 54.0419 16.174V9.52H52.9319V10.102C52.6999 9.862 52.4239 9.676 52.1039 9.544C51.7839 9.408 51.4239 9.34 51.0239 9.34C50.4159 9.34 49.8899 9.49 49.4459 9.79C49.0059 10.086 48.6659 10.492 48.4259 11.008C48.1859 11.52 48.0659 12.102 48.0659 12.754C48.0659 13.402 48.1839 13.984 48.4199 14.5C48.6599 15.016 48.9999 15.426 49.4399 15.73C49.8799 16.03 50.3999 16.18 50.9999 16.18ZM51.1739 15.046C50.7739 15.046 50.4419 14.944 50.1779 14.74C49.9139 14.536 49.7179 14.262 49.5899 13.918C49.4619 13.57 49.3979 13.182 49.3979 12.754C49.3979 12.33 49.4619 11.946 49.5899 11.602C49.7219 11.258 49.9219 10.984 50.1899 10.78C50.4579 10.576 50.7999 10.474 51.2159 10.474C51.8079 10.474 52.2419 10.686 52.5179 11.11C52.7939 11.534 52.9319 12.082 52.9319 12.754C52.9319 13.426 52.7939 13.976 52.5179 14.404C52.2419 14.832 51.7939 15.046 51.1739 15.046Z" fill="#FFA043"/>
</svg>
