<svg width="24" height="24" viewBox="0 0 24 24" fill="none" xmlns="http://www.w3.org/2000/svg">
<path fill-rule="evenodd" clip-rule="evenodd" d="M15 3H5C3.9 3 3.01 3.9 3.01 5L3 19C3 20.1 3.89 21 4.99 21H19C20.1 21 21 20.1 21 19V9L15 3ZM7.99999 17C7.44999 17 6.99999 16.55 6.99999 16C6.99999 15.45 7.44999 15 7.99999 15C8.54999 15 8.99999 15.45 8.99999 16C8.99999 16.55 8.54999 17 7.99999 17ZM7.99999 13C7.44999 13 6.99999 12.55 6.99999 12C6.99999 11.45 7.44999 11 7.99999 11C8.54999 11 8.99999 11.45 8.99999 12C8.99999 12.55 8.54999 13 7.99999 13ZM7.99999 9C7.44999 9 6.99999 8.55 6.99999 8C6.99999 7.45 7.44999 7 7.99999 7C8.54999 7 8.99999 7.45 8.99999 8C8.99999 8.55 8.54999 9 7.99999 9ZM14 10V4.5L19.5 10H14Z" fill="#2E2C34"/>
</svg>
