<svg width="69" height="69" viewBox="0 0 69 69" fill="none" xmlns="http://www.w3.org/2000/svg">
<path d="M34.5 69C15.4763 69 0 53.5237 0 34.5C0 15.4763 15.4763 0 34.5 0C40.9444 0 47.2303 1.78849 52.6792 5.17293C53.6314 5.76385 53.9233 7.01522 53.3323 7.96765C52.7404 8.91993 51.489 9.21388 50.5376 8.62084C45.7325 5.63585 40.1866 4.05894 34.5 4.05894C17.7146 4.05894 4.05879 17.7152 4.05879 34.5002C4.05879 51.2851 17.7146 64.9412 34.5 64.9412C51.285 64.9412 64.9412 51.285 64.9412 34.5C64.9412 31.1261 64.3937 27.8135 63.3135 24.6542C62.951 23.594 63.5176 22.4399 64.5777 22.0773C65.64 21.7168 66.7921 22.2813 67.1547 23.3415C68.3787 26.9247 69.0002 30.6791 69.0002 34.5002C69 53.5237 53.5237 69 34.5 69Z" fill="#05EEC0"/>
<path d="M34.5001 46.205C33.9853 46.205 33.4875 46.0094 33.1107 45.6543L16.8754 30.4031C16.0584 29.6358 16.0182 28.3515 16.7856 27.5345C17.5531 26.7185 18.8372 26.6762 19.6543 27.4458L34.3279 41.2299L60.9913 9.57735C61.7122 8.72014 62.9932 8.61026 63.8504 9.33313C64.7076 10.0551 64.8175 11.335 64.0946 12.1922L36.0517 45.4832C35.6934 45.9091 35.1744 46.1692 34.6184 46.202C34.5794 46.2039 34.5392 46.205 34.5001 46.205Z" fill="#05EEC0"/>
</svg>
