<svg width="73" height="24" viewBox="0 0 73 24" fill="none" xmlns="http://www.w3.org/2000/svg">
<rect width="73" height="24" rx="4" fill="#20C9AC" fill-opacity="0.1"/>
<path d="M12.446 16.18C13.442 16.18 14.266 15.928 14.918 15.424C15.574 14.92 16.03 14.242 16.286 13.39L15.014 13.048C14.842 13.652 14.542 14.126 14.114 14.47C13.686 14.814 13.13 14.986 12.446 14.986C11.834 14.986 11.322 14.848 10.91 14.572C10.502 14.296 10.194 13.91 9.986 13.414C9.782 12.918 9.682 12.34 9.686 11.68C9.69 11.02 9.794 10.442 9.998 9.946C10.202 9.45 10.508 9.064 10.916 8.788C11.324 8.512 11.834 8.374 12.446 8.374C13.13 8.374 13.686 8.546 14.114 8.89C14.542 9.234 14.842 9.708 15.014 10.312L16.286 9.97C16.03 9.118 15.574 8.44 14.918 7.936C14.266 7.432 13.442 7.18 12.446 7.18C11.582 7.18 10.846 7.37 10.238 7.75C9.63 8.13 9.164 8.658 8.84 9.334C8.52 10.006 8.36 10.788 8.36 11.68C8.36 12.572 8.52 13.356 8.84 14.032C9.164 14.704 9.63 15.23 10.238 15.61C10.846 15.99 11.582 16.18 12.446 16.18ZM20.4196 16.18C21.0636 16.18 21.6236 16.036 22.0996 15.748C22.5756 15.456 22.9436 15.054 23.2036 14.542C23.4676 14.026 23.5996 13.43 23.5996 12.754C23.5996 12.086 23.4696 11.496 23.2096 10.984C22.9496 10.468 22.5816 10.066 22.1056 9.778C21.6296 9.486 21.0676 9.34 20.4196 9.34C19.7836 9.34 19.2276 9.484 18.7516 9.772C18.2756 10.06 17.9056 10.46 17.6416 10.972C17.3776 11.484 17.2456 12.078 17.2456 12.754C17.2456 13.422 17.3756 14.014 17.6356 14.53C17.8956 15.046 18.2616 15.45 18.7336 15.742C19.2096 16.034 19.7716 16.18 20.4196 16.18ZM20.4196 14.998C19.8156 14.998 19.3576 14.796 19.0456 14.392C18.7336 13.984 18.5776 13.438 18.5776 12.754C18.5776 12.094 18.7276 11.558 19.0276 11.146C19.3276 10.73 19.7916 10.522 20.4196 10.522C21.0316 10.522 21.4916 10.724 21.7996 11.128C22.1116 11.532 22.2676 12.074 22.2676 12.754C22.2676 13.418 22.1136 13.958 21.8056 14.374C21.5016 14.79 21.0396 14.998 20.4196 14.998ZM24.9121 16H26.1721V11.95C26.1721 11.51 26.2921 11.154 26.5321 10.882C26.7761 10.61 27.0961 10.474 27.4921 10.474C27.8921 10.474 28.2101 10.61 28.4461 10.882C28.6861 11.15 28.8061 11.518 28.8061 11.986L28.8001 16H30.0541L30.0601 11.95C30.0601 11.462 30.1901 11.094 30.4501 10.846C30.7141 10.598 31.0241 10.474 31.3801 10.474C31.7721 10.474 32.0881 10.606 32.3281 10.87C32.5681 11.134 32.6881 11.498 32.6881 11.962L32.6821 16H33.9361L33.9421 11.662C33.9421 10.966 33.7481 10.408 33.3601 9.988C32.9761 9.568 32.4361 9.358 31.7401 9.358C31.3161 9.358 30.9321 9.452 30.5881 9.64C30.2441 9.824 29.9721 10.08 29.7721 10.408C29.6001 10.08 29.3541 9.824 29.0341 9.64C28.7181 9.452 28.3361 9.358 27.8881 9.358C27.5001 9.358 27.1441 9.436 26.8201 9.592C26.5001 9.744 26.2361 9.952 26.0281 10.216V9.52H24.9121V16ZM35.4942 18.88H36.7542V15.544C36.9822 15.748 37.2442 15.904 37.5402 16.012C37.8402 16.124 38.1742 16.18 38.5422 16.18C39.1462 16.18 39.6662 16.03 40.1022 15.73C40.5422 15.426 40.8802 15.016 41.1162 14.5C41.3562 13.984 41.4762 13.402 41.4762 12.754C41.4762 12.102 41.3562 11.52 41.1162 11.008C40.8762 10.492 40.5342 10.086 40.0902 9.79C39.6502 9.49 39.1262 9.34 38.5182 9.34C38.1182 9.34 37.7582 9.408 37.4382 9.544C37.1182 9.676 36.8422 9.862 36.6102 10.102V9.52H35.4942V18.88ZM38.3682 15.046C37.7522 15.046 37.3042 14.832 37.0242 14.404C36.7482 13.976 36.6102 13.426 36.6102 12.754C36.6102 12.082 36.7482 11.534 37.0242 11.11C37.3002 10.686 37.7342 10.474 38.3262 10.474C38.7422 10.474 39.0842 10.576 39.3522 10.78C39.6202 10.984 39.8182 11.258 39.9462 11.602C40.0782 11.946 40.1442 12.33 40.1442 12.754C40.1442 13.182 40.0802 13.57 39.9522 13.918C39.8242 14.262 39.6282 14.536 39.3642 14.74C39.1042 14.944 38.7722 15.046 38.3682 15.046ZM42.9209 16H44.1749V7.18H42.9209V16ZM48.8507 16.18C49.4787 16.18 50.0487 16.022 50.5607 15.706C51.0727 15.386 51.4547 14.936 51.7067 14.356L50.4767 13.966C50.1487 14.654 49.5867 14.998 48.7907 14.998C48.2467 14.998 47.8187 14.834 47.5067 14.506C47.1947 14.178 47.0127 13.714 46.9607 13.114H51.7907C51.8347 12.338 51.7427 11.668 51.5147 11.104C51.2867 10.54 50.9407 10.106 50.4767 9.802C50.0127 9.494 49.4507 9.34 48.7907 9.34C48.1587 9.34 47.6047 9.482 47.1287 9.766C46.6527 10.05 46.2807 10.452 46.0127 10.972C45.7487 11.492 45.6167 12.106 45.6167 12.814C45.6167 13.482 45.7507 14.07 46.0187 14.578C46.2907 15.082 46.6687 15.476 47.1527 15.76C47.6407 16.04 48.2067 16.18 48.8507 16.18ZM48.8387 10.45C49.8187 10.45 50.3747 11.012 50.5067 12.136H46.9907C47.0707 11.588 47.2647 11.17 47.5727 10.882C47.8807 10.594 48.3027 10.45 48.8387 10.45ZM56.8449 16V14.938C56.4209 15.002 56.0509 15.016 55.7349 14.98C55.4229 14.94 55.1949 14.798 55.0509 14.554C54.9749 14.422 54.9329 14.26 54.9249 14.068C54.9209 13.876 54.9189 13.65 54.9189 13.39V10.528H56.8449V9.52H54.9189V7.72H53.6589V9.52H52.4169V10.528H53.6589V13.45C53.6589 13.802 53.6629 14.118 53.6709 14.398C53.6829 14.674 53.7589 14.946 53.8989 15.214C54.0589 15.514 54.2929 15.734 54.6009 15.874C54.9089 16.014 55.2589 16.09 55.6509 16.102C56.0429 16.114 56.4409 16.08 56.8449 16ZM60.7804 16.18C61.4084 16.18 61.9784 16.022 62.4904 15.706C63.0024 15.386 63.3844 14.936 63.6364 14.356L62.4064 13.966C62.0784 14.654 61.5164 14.998 60.7204 14.998C60.1764 14.998 59.7484 14.834 59.4364 14.506C59.1244 14.178 58.9424 13.714 58.8904 13.114H63.7204C63.7644 12.338 63.6724 11.668 63.4444 11.104C63.2164 10.54 62.8704 10.106 62.4064 9.802C61.9424 9.494 61.3804 9.34 60.7204 9.34C60.0884 9.34 59.5344 9.482 59.0584 9.766C58.5824 10.05 58.2104 10.452 57.9424 10.972C57.6784 11.492 57.5464 12.106 57.5464 12.814C57.5464 13.482 57.6804 14.07 57.9484 14.578C58.2204 15.082 58.5984 15.476 59.0824 15.76C59.5704 16.04 60.1364 16.18 60.7804 16.18ZM60.7684 10.45C61.7484 10.45 62.3044 11.012 62.4364 12.136H58.9204C59.0004 11.588 59.1944 11.17 59.5024 10.882C59.8104 10.594 60.2324 10.45 60.7684 10.45Z" fill="#20C9AC"/>
</svg>
