<svg width="16" height="16" viewBox="0 0 16 16" fill="none" xmlns="http://www.w3.org/2000/svg">
<path d="M12.6666 5.33333H3.33325C2.22659 5.33333 1.33325 6.22667 1.33325 7.33333V11.3333H3.99992V14H11.9999V11.3333H14.6666V7.33333C14.6666 6.22667 13.7733 5.33333 12.6666 5.33333ZM10.6666 12.6667H5.33325V9.33333H10.6666V12.6667ZM12.6666 8C12.2999 8 11.9999 7.7 11.9999 7.33333C11.9999 6.96667 12.2999 6.66667 12.6666 6.66667C13.0333 6.66667 13.3333 6.96667 13.3333 7.33333C13.3333 7.7 13.0333 8 12.6666 8ZM11.9999 2H3.99992V4.66667H11.9999V2Z" fill="white"/>
</svg>
